# xmcd
#
# Track frame offsets:
#	150
#	13980
#	27180
#	40763
#	56656
#	67794
#	78339
#	90429
#	101349
#	113244
#	123752
#	135280
#
# Disc length: 1967 seconds
#
# Revision: 1
# Processed by: cddbd v1.5.2PL0 Copyright (c) Steve Scherf et al.
# Submitted via: audiograbber 1.83.01
#
DISCID=8707ad0c
DTITLE=T. Texas Tyler - The Hits Of
DYEAR=1965
DGENRE=Country
TTITLE0=Remember Me
TTITLE1=Bummin Around
TTITLE2=Filipino Baby
TTITLE3=Deck Of Cards
TTITLE4=Fair Weather Baby
TTITLE5=Courtin' In The Rain
TTITLE6=Rough And Rocky
TTITLE7=Memories Of France
TTITLE8=You'll Still Be In My Heart
TTITLE9=Dad Gave My Dog Away
TTITLE10=In My Little Red Book
TTITLE11=Olkahoma Hills
EXTD=This was originaly on an LP that i Converted to a CD
EXTT0=
EXTT1=
EXTT2=
EXTT3=
EXTT4=
EXTT5=
EXTT6=
EXTT7=
EXTT8=
EXTT9=
EXTT10=
EXTT11=
PLAYORDER=
